Coordinates
version=1
nRows=4
nColumns=63
inDegrees=yes

Units are S.I. units (second, meters, Newtons, ...)
If the header above contains a line with 'inDegrees', this indicates whether rotational values are in degrees (yes) or radians (no).

endheader
time	pelvis_tilt	pelvis_list	pelvis_rotation	pelvis_tx	pelvis_ty	pelvis_tz	hip_flexion_r	hip_adduction_r	hip_rotation_r	knee_angle_r	knee_angle_r_beta	ankle_angle_r	subtalar_angle_r	mtp_angle_r	hip_flexion_l	hip_adduction_l	hip_rotation_l	knee_angle_l	knee_angle_l_beta	ankle_angle_l	subtalar_angle_l	mtp_angle_l	L5_S1_Flex_Ext	L5_S1_Lat_Bending	L5_S1_axial_rotation	L4_L5_Flex_Ext	L4_L5_Lat_Bending	L4_L5_axial_rotation	L3_L4_Flex_Ext	L3_L4_Lat_Bending	L3_L4_axial_rotation	L2_L3_Flex_Ext	L2_L3_Lat_Bending	L2_L3_axial_rotation	L1_L2_Flex_Ext	L1_L2_Lat_Bending	L1_L2_axial_rotation	L1_T12_Flex_Ext	L1_T12_Lat_Bending	L1_T12_axial_rotation	Abs_r3	Abs_r2	Abs_r1	Abs_t1	Abs_t2	neck_flexion	neck_bending	neck_rotation	arm_flex_r	arm_add_r	arm_rot_r	elbow_flex_r	pro_sup_r	wrist_flex_r	wrist_dev_r	arm_flex_l	arm_add_l	arm_rot_l	elbow_flex_l	pro_sup_l	wrist_flex_l	wrist_dev_l
      1.18333333	     -4.32075778	     -4.00463192	     87.11083169	      0.20515497	      1.08234154	      0.11364174	      4.80788141	     -2.82117302	      4.02623105	     12.94523432	      0.22593696	     36.96133949	      2.21069352	      0.00000000	      3.01899274	      5.30549367	      3.96712005	      8.65147964	      0.15099680	     30.06182920	    -13.61873273	      0.00000000	      0.00813809	     -0.37247007	     -1.33506688	      0.01511325	     -0.49538519	     -1.41850856	      0.01337007	     -0.90562372	     -1.41850856	      0.00930103	     -0.90562372	     -1.16818352	      0.00755703	     -0.75954096	     -1.08474184	      0.00465011	     -0.57695613	     -1.00130016	      0.05812958	     -4.21345589	     -7.42524145	      0.00000000	      0.00000000	     10.51976688	      1.05572899	     -1.91141993	     59.00807365	    -51.49734857	     42.89877837	     71.26692110	     87.25641166	     63.63460345	     29.98964610	     70.48583934	    -18.54912302	     52.28335336	     92.23783039	     80.74052075	      8.38783962	     30.66004342
      1.20000000	     -4.10858595	     -4.13886216	     88.48910604	      0.20329274	      1.08248741	      0.11447471	      4.65706917	     -2.73741294	      2.50489188	     12.64640085	      0.22072133	     36.98412302	      2.52472765	      0.00000000	      3.44669548	      5.12753941	      4.67368967	      9.27131072	      0.16181490	     29.78220541	    -13.09809815	      0.00000000	     -0.00981868	     -0.37028221	     -1.69941346	     -0.01823426	     -0.49247534	     -1.80562680	     -0.01613110	     -0.90030417	     -1.80562680	     -0.01122177	     -0.90030417	     -1.48698678	     -0.00911762	     -0.75507948	     -1.38077344	     -0.00561039	     -0.57356714	     -1.27456009	     -0.07013382	     -4.18870643	     -9.45162784	      0.00000000	      0.00000000	     10.46733292	      1.65835647	     -1.13090362	     61.27553966	    -53.03068082	     44.03183529	     71.75160495	     88.10920492	     56.79718064	     29.21363510	     75.32399642	    -17.28580301	     53.94027988	     90.74346442	     83.78655449	     12.26345842	     30.55845193
      1.21666667	     -3.55942924	     -4.31744059	     89.04452886	      0.20121480	      1.08228763	      0.11533693	      4.66276268	     -2.40660325	      0.85618482	     12.32296736	      0.21507635	     37.08382350	      4.15457579	      0.00000000	      3.84343735	      4.65073677	      4.72583445	      9.76597867	      0.17044848	     29.51290694	    -12.86043950	      0.00000000	     -0.02486577	     -0.30564787	     -1.92357206	     -0.04617821	     -0.40651167	     -2.04379532	     -0.04085197	     -0.74315223	     -2.04379532	     -0.02841908	     -0.74315223	     -1.68312556	     -0.02309035	     -0.62327714	     -1.56290230	     -0.01420830	     -0.47344855	     -1.44267905	     -0.17761368	     -3.45754983	    -10.69833075	      0.00000000	      0.00000000	     10.80953666	      1.26483642	     -0.32520923	     64.99288985	    -56.05712671	     47.93148820	     72.88870829	     88.91011836	     44.86553815	     23.67309143	     79.90318418	    -15.28219617	     54.95328535	     87.73737369	     86.01311840	     15.95174926	     29.78350561
      1.23333333	     -2.91104732	     -4.43703723	     89.88310204	      0.19827767	      1.08195546	      0.11650594	      4.61015723	     -1.96986532	     -0.64321060	     12.03875054	      0.21011583	     37.02191136	      5.05558261	      0.00000000	      4.23069196	      4.13079527	      5.16355564	     10.29556310	      0.17969147	     29.33623943	    -12.62842918	      0.00000000	     -0.05063378	     -0.23448959	     -2.24212625	     -0.09403199	     -0.31187115	     -2.38225914	     -0.08318624	     -0.57013799	     -2.38225914	     -0.05786935	     -0.57013799	     -1.96186047	     -0.04701853	     -0.47817117	     -1.82172758	     -0.02893214	     -0.36322437	     -1.68159469	     -0.36167202	     -2.65259313	    -12.47003356	      0.00000000	      0.00000000	     11.34826553	      1.48579666	      0.63113852	     71.15584028	    -59.33500538	     56.37967600	     72.57298140	     89.27185016	     27.01392318	     10.40387487	     84.49877646	    -13.22828411	     56.68733672	     83.30955237	     86.52266550	     15.46273064	     28.41484209
